<svg width="13" height="12" viewBox="0 0 13 12" fill="none" xmlns="http://www.w3.org/2000/svg">
<g id="Thumbs-Down-Left-Side">
<path id="Vector (Stroke)" fill-rule="evenodd" clip-rule="evenodd" d="M4.36803 2.5C4.17865 2.5 4.00552 2.607 3.92082 2.77639L2.71115 5.19574C2.57229 5.47345 2.5 5.77968 2.5 6.09017V6.25C2.5 6.52614 2.72386 6.75 3 6.75H5.5C5.65805 6.75 5.8068 6.82473 5.90115 6.95153C5.99549 7.07834 6.02433 7.24229 5.97891 7.39367L5.51986 8.92386C5.40265 9.31455 5.53448 9.73727 5.85299 9.99208L5.90952 10.0373L5.59717 10.4277L5.90952 10.0373L8.5 6.58333V3.0331L7.73026 2.57125C7.65256 2.52463 7.56364 2.5 7.47302 2.5H4.36803ZM8.65735 1.96131L8.24476 1.71376C8.01164 1.57389 7.74488 1.5 7.47302 1.5H4.36803C3.79988 1.5 3.28048 1.821 3.02639 2.32918L1.81672 4.74853C1.60844 5.1651 1.5 5.62443 1.5 6.09017V6.25C1.5 7.07843 2.17157 7.75 3 7.75H4.82798L4.56203 8.63651C4.32762 9.41789 4.59127 10.2633 5.22829 10.7729L5.54064 10.3825L5.22829 10.7729L5.28483 10.8182C5.72565 11.1708 6.37081 11.0889 6.70952 10.6373L8.86074 7.76902C9.03405 7.91325 9.2569 8 9.5 8H10.5C11.0523 8 11.5 7.55228 11.5 7V2.5C11.5 1.94772 11.0523 1.5 10.5 1.5H9.5C9.14606 1.5 8.83507 1.68388 8.65735 1.96131ZM10.5 2.5L9.5 2.5V7H10.5V2.5Z" fill="#D92D20"/>
</g>
</svg>
