<svg xmlns="http://www.w3.org/2000/svg" width="25" height="24" viewBox="0 0 25 24" fill="none">
  <path d="M9 21C7.83145 21 6.74801 20.6356 5.85714 20.0142L4 20.5L4.48576 18.6428C3.8644 17.7519 3.5 16.6685 3.5 15.5C3.5 12.4624 5.96243 10 9 10C12.0376 10 14.5 12.4624 14.5 15.5C14.5 18.5376 12.0376 21 9 21Z" stroke="#667085" stroke-width="2"/>
  <path d="M14.5 13.793C14.9768 13.9278 15.48 14 16 14C17.1686 14 18.252 13.6356 19.1429 13.0142L21 13.5L20.5142 11.6428C21.1356 10.7519 21.5 9.66851 21.5 8.5C21.5 5.46243 19.0376 3 16 3C12.9624 3 10.5 5.46243 10.5 8.5C10.5 9.02001 10.5722 9.52317 10.707 10" stroke="#667085" stroke-width="2"/>
  <path d="M16 9C16.2766 9 16.5479 8.9235 16.7837 8.77896C17.0196 8.63442 17.2109 8.42747 17.3365 8.18099C17.4621 7.9345 17.5171 7.65809 17.4954 7.38231C17.4737 7.10653 17.3761 6.84212 17.2135 6.61832C17.0509 6.39452 16.8296 6.22004 16.574 6.11418C16.3184 6.00832 16.0386 5.97519 15.7653 6.01847C15.4921 6.06174 15.2362 6.17973 15.0258 6.35939C14.8155 6.53905 14.6589 6.77338 14.5734 7.03647" stroke="#667085" stroke-width="2" stroke-linecap="round" stroke-linejoin="round"/>
  <path d="M16 9V9.5" stroke="#667085" stroke-width="2" stroke-linecap="round"/>
  <path d="M16 11.6875L16 11.7812" stroke="#667085" stroke-width="2" stroke-linecap="round"/>
  <path d="M10.5 14H7.5" stroke="#667085" stroke-width="2" stroke-linecap="round" stroke-linejoin="round"/>
  <path d="M8.5 17H7.5" stroke="#667085" stroke-width="2" stroke-linecap="round" stroke-linejoin="round"/>
</svg>