<svg width="13" height="12" viewBox="0 0 13 12" fill="none" xmlns="http://www.w3.org/2000/svg">
<g id="Thumbs-Up-Right-Side">
<path id="Vector (Stroke)" fill-rule="evenodd" clip-rule="evenodd" d="M6.29048 1.3627C6.62919 0.911078 7.27435 0.829173 7.71517 1.18183L7.77171 1.22706C8.40873 1.73667 8.67238 2.58211 8.43797 3.36349L8.17202 4.25H10C10.8284 4.25 11.5 4.92158 11.5 5.75V5.90983C11.5 6.37557 11.3916 6.83491 11.1833 7.25147L9.97361 9.67082C9.71952 10.179 9.20012 10.5 8.63197 10.5H5.52698C5.25512 10.5 4.98836 10.4261 4.75524 10.2862L4.34265 10.0387C4.16493 10.3161 3.85394 10.5 3.5 10.5H2.5C1.94772 10.5 1.5 10.0523 1.5 9.5V5C1.5 4.44772 1.94772 4 2.5 4H3.5C3.7431 4 3.96595 4.08675 4.13926 4.23098L6.29048 1.3627ZM4.5 5.41667V8.96691L5.26974 9.42875L5.01249 9.8575L5.26974 9.42875C5.34744 9.47537 5.43636 9.5 5.52698 9.5H8.63197C8.82135 9.5 8.99448 9.393 9.07918 9.22361L10.2889 6.80426C10.4277 6.52655 10.5 6.22032 10.5 5.90983V5.75C10.5 5.47386 10.2761 5.25 10 5.25H7.5C7.34195 5.25 7.1932 5.17527 7.09885 5.04847C7.00451 4.92166 6.97567 4.75772 7.02109 4.60633L7.48014 3.07614C7.59735 2.68545 7.46552 2.26273 7.14701 2.00792L7.09048 1.9627L4.5 5.41667ZM3.5 5H2.5V9.5H3.5V5Z" fill="#079455"/>
</g>
</svg>
