<svg width="25" height="24" viewBox="0 0 25 24" fill="none" xmlns="http://www.w3.org/2000/svg">
<g id="Apprisal-star-comment">
<g id="Vector">
<path d="M3.5 7C3.5 4.79086 5.29086 3 7.5 3H17.5C19.7091 3 21.5 4.79086 21.5 7V14.3C21.5 16.5091 19.7091 18.3 17.5 18.3H15.6142C15.349 18.3 15.0946 18.4054 14.9071 18.5929L13.2071 20.2929C12.8166 20.6834 12.1834 20.6834 11.7929 20.2929L10.0929 18.5929C9.90536 18.4054 9.651 18.3 9.38579 18.3H7.5C5.29086 18.3 3.5 16.5091 3.5 14.3V7Z" stroke="#667085" stroke-width="2" stroke-linejoin="round"/>
<path d="M12.1373 7.38234C12.3344 7.17451 12.6656 7.17451 12.8627 7.38234L14.082 8.66748C14.1242 8.71195 14.1742 8.74828 14.2295 8.77467L15.8285 9.5371C16.0871 9.6604 16.1894 9.97532 16.0527 10.2271L15.2072 11.7838C15.178 11.8376 15.1589 11.8964 15.1509 11.9572L14.9199 13.7135C14.8825 13.9976 14.6146 14.1922 14.333 14.14L12.5912 13.8169C12.5309 13.8057 12.4691 13.8057 12.4088 13.8169L10.667 14.14C10.3854 14.1922 10.1175 13.9976 10.0801 13.7135L9.84913 11.9572C9.84114 11.8964 9.82204 11.8376 9.79278 11.7838L8.94731 10.2271C8.81058 9.97532 8.91291 9.6604 9.17149 9.5371L10.7705 8.77467C10.8258 8.74828 10.8758 8.71195 10.918 8.66748L12.1373 7.38234Z" stroke="#667085" stroke-width="2" stroke-linejoin="round"/>
</g>
</g>
</svg>
